<svg width="1600" height="520" viewBox="0 0 1600 520" fill="none" xmlns="http://www.w3.org/2000/svg" role="img" aria-labelledby="title desc">
  <title id="title">Azure AI Constellation</title>
  <desc id="desc">Mission-control inspired banner for the Azure AI Constellation demo.</desc>
  <defs>
    <linearGradient id="bg" x1="0" y1="0" x2="1600" y2="520" gradientUnits="userSpaceOnUse">
      <stop stop-color="#0A0E1A"/>
      <stop offset="1" stop-color="#060A14"/>
    </linearGradient>
    <radialGradient id="glow" cx="0" cy="0" r="1" gradientUnits="userSpaceOnUse" gradientTransform="translate(1172 124) rotate(136.003) scale(481.57 678.059)">
      <stop stop-color="#0078D4" stop-opacity="0.28"/>
      <stop offset="1" stop-color="#0078D4" stop-opacity="0"/>
    </radialGradient>
    <radialGradient id="amber" cx="0" cy="0" r="1" gradientUnits="userSpaceOnUse" gradientTransform="translate(320 420) rotate(-21.307) scale(425.652 200.463)">
      <stop stop-color="#F59E0B" stop-opacity="0.18"/>
      <stop offset="1" stop-color="#F59E0B" stop-opacity="0"/>
    </radialGradient>
  </defs>
  <rect width="1600" height="520" fill="url(#bg)"/>
  <rect width="1600" height="520" fill="url(#glow)"/>
  <rect width="1600" height="520" fill="url(#amber)"/>
  <g opacity="0.12" stroke="#E2E8F0">
    <path d="M0 72.5H1600"/>
    <path d="M0 144.5H1600"/>
    <path d="M0 216.5H1600"/>
    <path d="M0 288.5H1600"/>
    <path d="M0 360.5H1600"/>
    <path d="M0 432.5H1600"/>
    <path d="M72.5 0V520"/>
    <path d="M144.5 0V520"/>
    <path d="M216.5 0V520"/>
    <path d="M288.5 0V520"/>
    <path d="M360.5 0V520"/>
    <path d="M432.5 0V520"/>
    <path d="M504.5 0V520"/>
    <path d="M576.5 0V520"/>
    <path d="M648.5 0V520"/>
    <path d="M720.5 0V520"/>
    <path d="M792.5 0V520"/>
    <path d="M864.5 0V520"/>
    <path d="M936.5 0V520"/>
    <path d="M1008.5 0V520"/>
    <path d="M1080.5 0V520"/>
    <path d="M1152.5 0V520"/>
    <path d="M1224.5 0V520"/>
    <path d="M1296.5 0V520"/>
    <path d="M1368.5 0V520"/>
    <path d="M1440.5 0V520"/>
    <path d="M1512.5 0V520"/>
  </g>
  <g opacity="0.42" stroke="#0078D4" stroke-width="2">
    <path d="M1020 110L1184 154L1318 124L1434 184"/>
    <path d="M1020 110L962 188L1036 270L1174 250L1318 124"/>
    <path d="M962 188L838 154L734 228L812 318L1036 270"/>
    <path d="M734 228L606 180L492 252L558 360L812 318"/>
    <path d="M492 252L366 196L268 286L354 386L558 360"/>
  </g>
  <g fill="#E2E8F0">
    <circle cx="1020" cy="110" r="7"/>
    <circle cx="1184" cy="154" r="6"/>
    <circle cx="1318" cy="124" r="8"/>
    <circle cx="1434" cy="184" r="6"/>
    <circle cx="962" cy="188" r="6"/>
    <circle cx="1036" cy="270" r="8" fill="#10B981"/>
    <circle cx="1174" cy="250" r="6"/>
    <circle cx="838" cy="154" r="5"/>
    <circle cx="734" cy="228" r="6"/>
    <circle cx="812" cy="318" r="7" fill="#10B981"/>
    <circle cx="606" cy="180" r="5"/>
    <circle cx="492" cy="252" r="6"/>
    <circle cx="558" cy="360" r="7" fill="#0078D4"/>
    <circle cx="366" cy="196" r="5"/>
    <circle cx="268" cy="286" r="6" fill="#F59E0B"/>
    <circle cx="354" cy="386" r="7"/>
  </g>
  <g font-family="Inter, Arial, sans-serif" fill="#E2E8F0">
    <text x="112" y="132" font-size="18" letter-spacing="5.4" opacity="0.72">BUILT WITH COPILOT CLI</text>
    <text x="112" y="228" font-size="64" font-weight="700">Azure AI Constellation</text>
    <text x="112" y="278" font-size="24" opacity="0.82">A static mission-control demo for GPU clusters, training telemetry, and operator storytelling.</text>
  </g>
  <g font-family="'JetBrains Mono', monospace">
    <rect x="112" y="338" width="320" height="112" rx="0" fill="rgba(10,14,26,0.88)" stroke="rgba(255,255,255,0.12)"/>
    <text x="136" y="372" font-size="14" fill="#64748B" letter-spacing="3.2">LIVE SIGNAL</text>
    <text x="136" y="420" font-size="38" font-weight="700" fill="#FFFFFF">1,247.3 PFLOPS</text>
    <text x="136" y="446" font-size="15" fill="#10B981">LOSS 0.0310 · OFR NOMINAL · FABRIC GREEN</text>
  </g>
</svg>
